HIERARCHY
ROOT Hips
{
  OFFSET -15.076 93.0821 45.3178
  CHANNELS 6 Xposition Yposition Zposition Zrotation Xrotation Yrotation
  JOINT ToSpine
  {
    OFFSET -2.69724 7.43032 -0.144315
    CHANNELS 3 Zrotation Xrotation Yrotation
    JOINT Spine
    {
      OFFSET -0.0310711 10.7595 1.96963
      CHANNELS 3 Zrotation Xrotation Yrotation
      JOINT Spine1
      {
        OFFSET 13.1342 3.43533 0.764692
        CHANNELS 3 Zrotation Xrotation Yrotation
        JOINT Neck
        {
          OFFSET 29.8703 7.82586 -0.130764
          CHANNELS 3 Zrotation Xrotation Yrotation
          JOINT Head
          {
            OFFSET 9.52751 0.295786 -0.907742
            CHANNELS 3 Zrotation Xrotation Yrotation
            End Site
            {
              OFFSET 16.4037 0.713936 2.7358
            }
          }
        }
        JOINT LeftShoulder
        {
          OFFSET 27.5574 4.95586 2.47156
          CHANNELS 3 Zrotation Xrotation Yrotation
          JOINT LeftArm
          {
            OFFSET 1.20734 -0.998971 20.1238
            CHANNELS 3 Zrotation Xrotation Yrotation
            JOINT LeftForeArm
            {
              OFFSET 26.8049 -0.0536703 -0.155908
              CHANNELS 3 Zrotation Xrotation Yrotation
              JOINT LeftHand
              {
                OFFSET 26.6817 0 0.320147
                CHANNELS 3 Zrotation Xrotation Yrotation
                End Site
                {
                  OFFSET 18.6119 0 0.382219
                }
              }
            }
          }
        }
        JOINT RightShoulder
        {
          OFFSET 27.5927 4.71444 -2.65209
          CHANNELS 3 Zrotation Xrotation Yrotation
          JOINT RightArm
          {
            OFFSET 2.83739 -1.17114 -18.7564
            CHANNELS 3 Zrotation Xrotation Yrotation
            JOINT RightForeArm
            {
              OFFSET 28.839 -0.0548439 1.22491
              CHANNELS 3 Zrotation Xrotation Yrotation
              JOINT RightHand
              {
                OFFSET 26.5114 0 -0.101894
                CHANNELS 3 Zrotation Xrotation Yrotation
                End Site
                {
                  OFFSET 18.2168 0 0
                }
              }
            }
          }
        }
      }
    }
  }
  JOINT LeftUpLeg
  {
    OFFSET -4.76168 -1.9167 -10.2353
    CHANNELS 3 Zrotation Xrotation Yrotation
    JOINT LeftLeg
    {
      OFFSET 2.55951 -42.0585 -8.02213
      CHANNELS 3 Zrotation Xrotation Yrotation
      JOINT LeftFoot
      {
        OFFSET 3.16357 -42.5282 -3.95426
        CHANNELS 3 Zrotation Xrotation Yrotation
        JOINT LeftToeBase
        {
          OFFSET 0.346054 -6.02161 12.8035
          CHANNELS 3 Zrotation Xrotation Yrotation
          End Site
          {
            OFFSET 0.134235 -1.35082 5.13018
          }
        }
      }
    }
  }
  JOINT RightUpLeg
  {
    OFFSET -4.94151 -1.41743 10.6446
    CHANNELS 3 Zrotation Xrotation Yrotation
    JOINT RightLeg
    {
      OFFSET -2.56294 -42.0364 -7.94377
      CHANNELS 3 Zrotation Xrotation Yrotation
      JOINT RightFoot
      {
        OFFSET -3.0952 -42.555 -4.02241
        CHANNELS 3 Zrotation Xrotation Yrotation
        JOINT RightToeBase
        {
          OFFSET -0.0828122 -6.13587 12.8035
          CHANNELS 3 Zrotation Xrotation Yrotation
          End Site
          {
            OFFSET -0.131328 -1.35082 5.13018
          }
        }
      }
    }
  }
}
MOTION
Frames:	17
Frame Time:	0.0333333
-15.318 93.1766 44.2074 72.6243 -15.1415 -3.78825 -70.1915 0 88.8779 71.6115 73.034 10.7271 4.53533 22.2913 3.84399 -124.971 35.0732 155.187 170.13 78.6174 -147.127 0.623837 -14.4991 -19.3646 -61.8674 41.0212 -142.991 12.5775 -3.43599 -104.207 0.0512902 0.000212312 0.120588 -1.91439 7.22815 40.9666 -131.38 -21.0097 84.6466 13.2442 2.60239 100.596 0.58676 0.00033108 0.0646653 -52.2416 9.33719 92.0678 -2.90785 41.2421 -8.24185 -0.693739 -17.2963 -1.49414 3.83148 -10.5474 12.1461 -40.3631 -12.3564 79.6008 1.58786 34.603 1.89342 -6.71616 -0.515377 1.02603 1.84184 -7.79809 -9.70051 
-15.1325 93.1029 45.0332 72.4023 -14.5256 -3.66284 -70.1915 0 88.8779 71.3581 72.8714 10.6094 4.23952 22.05 3.94079 -125.07 34.9017 154.955 171.416 78.5847 -148.59 0.63742 -14.4372 -19.1695 -61.6547 41.0373 -143.075 12.1811 -3.40661 -104.551 0.0355727 0.000113924 0.11845 -1.78739 6.87063 40.6112 -131.277 -21.934 84.3421 13.2642 2.68275 100.902 0.58676 0.00033108 0.0646653 -52.1808 9.95865 91.9385 -2.94661 40.9649 -8.82223 -1.01658 -17.7143 -1.54107 3.30121 -9.63434 11.8568 -39.6464 -12.421 79.0404 1.30619 36.3525 -0.908101 -5.84552 -2.87399 0.984993 1.04922 -5.24015 -3.38873 
-14.9378 93.039 46.2246 72.1953 -13.5388 -3.17815 -70.1915 0 88.8779 71.4719 72.5899 10.0346 4.10996 21.5879 4.34416 -125.552 34.969 154.803 172.213 78.6855 -149.803 0.621746 -14.5251 -19.3545 -62.0817 40.7691 -142.713 11.6007 -3.24269 -104.559 0.0713572 0.000337937 0.190068 -1.74671 6.85625 40.0988 -131.377 -22.489 83.6889 13.373 2.87988 101.596 0.58676 0.00033108 0.0646653 -52.1291 10.9994 91.601 -3.02808 40.4588 -10.113 -1.0535 -17.4812 -1.52043 3.20085 -9.58822 12.5355 -38.9609 -12.4247 77.867 1.37331 38.6549 -1.66992 -7.35986 -3.5817 1.14873 0.916109 -6.28351 -1.58033 
-14.758 92.9343 47.4991 71.5071 -12.5001 -2.78881 -70.1915 0 88.8779 72.5476 72.3521 8.74003 3.38185 21.1556 4.81227 -125.672 34.8259 154.383 172.935 78.6664 -150.341 0.602278 -14.6618 -19.4982 -62.1204 40.7206 -142.664 11.5164 -3.19062 -104.433 0.102014 0.000529842 0.197516 -1.65677 6.53743 40.0532 -131.206 -22.2535 83.8231 12.8939 3.01813 102.603 0.58676 0.00033108 0.0646653 -51.6009 11.9149 91.0488 -3.02307 39.7622 -10.7826 -1.27004 -16.7453 -1.45597 3.66934 -10.5124 13.6002 -37.908 -12.4465 76.9368 1.83974 40.5638 0.786084 -5.84124 -4.25178 1.02075 1.50277 -7.68739 -5.98469 
-14.6943 92.8582 48.6486 69.8734 -11.5106 -3.09763 -70.1915 0 88.8779 74.1183 71.8841 7.37108 1.92408 20.4837 5.11805 -126.269 35.0703 154.854 171.724 78.6357 -149.059 0.569656 -14.8027 -19.9449 -62.3529 40.4634 -141.971 11.1465 -3.11867 -104.582 0.192093 0.00109371 0.0842309 -1.54698 6.35521 39.1711 -130.538 -22.6704 83.2688 12.7689 3.47589 104.605 0.58676 0.00033108 0.0646653 -50.0423 11.8039 90.0309 -2.79489 38.9907 -9.35808 -0.888013 -16.4479 -1.42117 3.44114 -10.1379 13.6018 -35.6391 -13.7009 74.979 2.25997 42.502 2.80417 -5.88146 -4.60275 1.03102 1.64767 -7.15405 -7.8795 
-14.5482 92.9227 49.6052 67.3947 -12.8933 -5.96407 -70.1915 0 88.8779 72.1821 71.7052 9.86999 1.54744 20.7099 4.11679 -127.137 35.0568 155.539 175.488 78.5101 -151.71 0.564678 -14.6422 -20.4804 -63.4556 41.0159 -139.411 10.9159 -3.26401 -105.581 0.231845 0.00142066 0.15095 -1.48645 6.12821 39.1964 -127.34 -23.0144 85.1707 11.7634 3.99562 108.083 0.58676 0.00033108 0.0646653 -50.0738 10.0743 91.2241 -2.33077 36.5527 -6.85896 -0.11421 -15.2708 -1.31125 2.37011 -9.62247 20.0369 -31.2936 -14.6955 75.9594 2.74674 44.7341 4.71328 -3.57211 -4.4736 0.818246 1.80171 -7.46829 -9.30026 
-14.0929 92.8875 50.0558 64.5743 -19.0159 -11.5554 -70.1915 0 88.8779 75.79 71.8571 8.05723 0.495926 21.1801 2.45381 -129.034 34.5171 159.904 178.316 76.8778 -152.624 0.558211 -14.4615 -21.1562 -67.9766 42.7147 -131.4 11.5618 -4.13941 -108.552 0.342402 0.000420137 0.328576 -1.35149 6.00939 37.5445 -118.04 -28.4996 90.6361 10.1866 4.48561 113.036 0.58676 0.00033108 0.0646653 -53.1497 9.18476 97.2371 -1.33631 32.4811 -0.727509 0.480945 -12.1773 -1.06152 4.06643 -11.9269 19.9079 -25.5786 -13.3603 80.4809 3.05681 47.1792 5.18046 -0.784706 -3.6259 0.50204 1.50145 -5.72322 -7.18304 
-13.6439 92.5975 50.0461 60.1462 -27.0337 -18.5925 -70.1915 0 88.8779 86.5432 71.0711 -2.10226 -2.47329 20.0425 3.3558 -130.922 32.7182 165.002 -172.69 74.1725 -158.712 0.629028 -14.2422 -20.0168 -75.6599 46.1095 -119.627 13.2412 -6.19698 -113.752 -0.12601 0.0056844 0.165504 -1.03416 5.08074 35.7373 -101.993 -35.0628 102.785 10.6807 5.55983 116.716 0.58676 0.00033108 0.0646653 -56.2095 8.24185 104.289 -1.35391 28.9886 5.89607 -2.33587 -14.2032 -1.22857 3.272 -10.5926 18.1598 -19.0136 -9.55974 85.8766 3.67419 50.1485 6.40394 0.943698 -1.43639 0.132105 1.01127 -3.9218 -4.11485 
-13.4535 91.7894 49.8262 55.1582 -34.3729 -26.0252 -70.1915 0 88.8779 100.138 68.3149 -17.9732 -4.95081 17.1814 5.95079 -134.532 29.8128 167.737 -157.941 70.4122 -171.796 0.6171 -15.5444 -17.3252 -88.2169 44.5908 -108.703 14.4969 -7.16997 -113.823 -0.646931 0.0118018 0.143532 -1.00802 4.9611 35.4622 -84.4236 -37.9669 117.014 10.2105 6.17933 120.373 0.58676 0.00033108 0.0646653 -57.0827 8.121 111.746 -1.53186 31.006 1.93711 -4.11357 -16.17 -1.44639 4.38921 -12.2439 18.7011 -13.7509 -4.34341 93.2773 4.19344 51.3473 9.0721 -2.31532 2.12657 0.344943 0.880539 -8.4808 1.17892 
-13.3809 89.9922 49.2446 51.222 -39.8929 -30.6138 -70.1915 0 88.8779 109.362 64.437 -29.6789 -3.03841 13.7107 9.28049 -140.163 27.2131 170.323 -150.263 66.5229 -178.943 0.586465 -17.8854 -15.0267 -101.404 34.5076 -110.704 13.1619 -0.657955 -96.901 -0.53839 0.0114647 0.83655 -1.07991 5.29847 35.1482 -70.1928 -38.7006 130.115 7.71055 5.18297 123.128 0.58676 0.00033108 0.0646653 -54.8957 8.77487 111.186 -2.71712 41.5527 -3.96329 -3.03145 -19.4597 -1.78829 6.8157 -15.9152 23.1326 -11.4975 1.6185 101.041 4.48469 50.4434 11.8072 -0.683158 3.41783 0.0167525 2.02081 -9.17822 -11.7071 
-13.0958 87.4246 49.3515 46.8702 -41.9554 -32.9857 -70.1915 0 88.8779 106.581 62.0284 -28.679 2.79612 9.79025 12.7095 -141.8 25.6486 170.145 -147.509 64.523 178.79 0.37289 -22.1014 -14.6946 -104 14.1979 -126.575 14.6237 8.24752 -55.4089 -0.296922 0.0097741 1.15491 -1.1931 5.4828 36.5373 -60.1257 -37.1092 138.071 6.45308 4.34475 123.158 0.58676 0.00033108 0.0646653 -50.4142 11.2625 106.369 -3.71799 52.7276 -3.68954 -1.01531 -21.9843 -1.94097 7.67293 -16.9448 22.2888 -8.10916 7.47921 101.228 3.27556 53.4468 2.38247 -6.73635 -1.40455 0.980506 0.766291 -6.91442 1.26436 
-11.9038 85.5524 49.6803 40.9181 -42.7119 -36.3568 -70.1915 0 88.8779 100.735 60.9983 -24.3558 8.60379 7.24464 16.0788 -141.631 24.0984 166.873 -144.776 62.6559 173.881 0.959626 -24.8867 -8.88767 -107.64 4.8579 -136.565 -3.09221 22.378 -11.9476 1.74033 0.0024145 1.28559 -1.21787 5.54132 36.4918 -54.6234 -32.5668 139.845 0.732549 0.497452 120.577 0.58676 0.00033108 0.0646653 -47.5882 11.7136 101.004 -4.62614 55.5522 -5.19927 0.291975 -24.7399 -2.08419 9.83481 -19.699 24.5845 -2.79816 9.85786 99.8459 4.66718 57.3561 2.77771 -6.73964 -4.13721 1.11339 1.14335 -5.56939 -4.40804 
-10.0106 83.6432 49.7501 33.9385 -47.3903 -43.6483 -70.1915 0 88.8779 107.433 59.7728 -28.5453 8.81565 7.54749 13.89 -142.354 23.2609 168.245 -142.358 61.2432 173.492 1.70987 -23.2857 -3.08538 -108.487 13.6392 -129.169 -3.85419 15.2395 -12.7085 2.55982 0.0186898 2.06034 -0.729535 3.8958 34.1514 -50.5004 -28.8626 143.627 5.92093 3.09491 116.874 0.58676 0.00033108 0.0646653 -49.8142 10.902 102.63 -4.95763 57.0505 -5.04383 1.73285 -30.0005 -2.30818 9.29626 -18.9814 25.7922 1.31703 12.1072 96.7737 6.58947 62.1283 5.48563 -5.99188 -4.68133 1.04132 1.34567 -6.52315 -5.67694 
-8.19034 82.7032 49.9225 27.7974 -51.7834 -52.418 -70.1915 0 88.8779 117.649 56.0533 -30.6926 4.91377 8.92777 1.07676 -139.923 21.0562 170.556 -147.059 59.8134 179.855 1.19749 -17.0378 -5.25775 -115.125 28.2518 -117.194 3.54042 7.40045 -32.415 0.671922 0.0136283 1.9529 -1.43072 6.57759 36.3829 -50.6602 -30.8252 140.679 5.79434 3.04294 116.981 0.58676 0.00033108 0.0646653 -53.1942 7.55438 105.969 -4.86872 56.7268 -4.86238 1.55705 -31.0521 -2.42425 10.264 -20.0664 29.1777 3.28881 12.0858 92.598 7.66953 66.0099 3.05161 -5.14817 -6.03428 1.01536 -0.106151 -1.78602 2.57238 
-6.87278 82.6172 50.5888 25.9181 -52.4049 -56.3476 -70.1915 0 88.8779 122.111 55.5085 -32.8764 3.06256 10.1409 -1.95948 -134.8 20.6174 170.668 -146.356 59.6559 -178.468 0.917166 -16.2946 -10.0894 -127.815 43.1142 -95.874 7.79663 5.05826 -56.6469 -0.21965 0.0138679 1.65134 -1.91148 8.20837 37.2283 -56.2788 -34.6368 133.928 3.01477 1.69527 118.273 0.58676 0.00033108 0.0646653 -54.6051 5.00019 107.955 -4.62467 55.5047 -5.23589 1.41239 -29.6994 -2.34379 10.4967 -20.2708 29.9127 3.6432 9.903 90.7104 8.03014 67.485 0.655071 -6.80364 -7.06791 1.15635 -1.06981 -2.18813 8.95332 
-5.86499 83.0013 51.626 24.1004 -51.3328 -57.0573 -70.1915 0 88.8779 123.523 58.7514 -33.9176 3.90972 12.1441 3.56681 -130.491 22.6016 172.284 -141.833 61.0128 -179.45 -0.1663 -19.7039 -23.4878 -131.941 41.6001 -80.6317 10.0065 1.51414 -80.1903 -0.797231 0.0158366 0.728443 -1.30696 6.7603 33.8163 -63.5017 -37.6253 130.238 7.85078 4.24531 117.693 0.58676 0.00033108 0.0646653 -53.975 5.44665 107.31 -4.22646 54.7306 -3.74882 0.891366 -27.6749 -2.25505 10.7423 -20.7422 25.8492 4.27727 9.67784 90.1422 8.91938 67.6248 3.85012 -4.38784 -7.78597 1.02643 -0.0905821 -0.478779 0.626381 
-5.61838 83.6851 52.344 26.9034 -49.8828 -53.6549 -70.1915 0 88.8779 123.351 60.1907 -33.3838 4.58749 12.6687 5.95825 -128.032 23.5079 173.342 -141.383 61.7349 -179.045 -1.18086 -20.9472 -30.8455 -126.744 41.1022 -74.5106 7.20714 -1.14044 -98.8246 -0.592701 0.0118061 0.324985 -1.09629 6.19236 32.0977 -69.109 -39.5476 130.047 8.84795 4.49736 116.244 0.58676 0.00033108 0.0646653 -53.824 6.14829 104.911 -3.68038 53.5097 -1.69323 0.390543 -23.676 -1.97861 12.9102 -23.7367 20.8432 3.76229 8.40614 90.3112 8.29921 67.5702 1.41059 -3.50099 -7.42597 0.948287 -0.878662 -1.02637 6.12298 
